<?xml version="1.0" encoding="UTF-8"?>
<svg version="1.1" xmlns="http://www.w3.org/2000/svg" width="64" height="64">
<path d="M0 0 C4.65394917 2.87404477 8.81753762 6.4392254 10.234375 11.89453125 C10.53534831 16.25099243 10.4703058 20.53636506 10.234375 24.89453125 C9.60789063 25.05308594 8.98140625 25.21164063 8.3359375 25.375 C7.51867188 25.60832031 6.70140625 25.84164063 5.859375 26.08203125 C5.04726563 26.30246094 4.23515625 26.52289062 3.3984375 26.75 C1.08127431 27.73687223 1.08127431 27.73687223 -0.03515625 30.0078125 C-1.12252815 34.3049667 -1.08868785 38.60450611 -1.06835938 43.01171875 C-1.18420878 46.97302087 -1.62009686 48.71565787 -4.15234375 51.828125 C-6.92155666 54.01783147 -8.23646805 54.98276017 -11.765625 54.89453125 C-20.5990787 48.68530162 -27.0833515 38.28068616 -29.765625 27.89453125 C-30.8819612 20.61550763 -31.16512993 13.10941564 -27.203125 6.64453125 C-20.28252757 -1.71452754 -10.32411605 -4.12673 0 0 Z M-18.765625 14.89453125 C-19.46409625 17.73421765 -19.46409625 20.05484485 -18.765625 22.89453125 C-16.77640614 25.87835955 -15.38059932 27.49729966 -11.828125 28.37109375 C-7.90499008 28.65344058 -6.09450129 28.11378211 -2.765625 25.89453125 C-0.54637414 22.56565496 -0.00671567 20.75516617 -0.2890625 16.83203125 C-1.16285659 13.27955693 -2.7817967 11.88375011 -5.765625 9.89453125 C-11.58225703 8.4638274 -15.37377406 9.80675484 -18.765625 14.89453125 Z " fill="#4BB179" transform="translate(33.765625,5.10546875)"/>
<path d="M0 0 C0.98484375 -0.00128906 1.9696875 -0.00257812 2.984375 -0.00390625 C4.02078125 -0.00003906 5.0571875 0.00382812 6.125 0.0078125 C7.67960937 0.00201172 7.67960937 0.00201172 9.265625 -0.00390625 C10.25046875 -0.00261719 11.2353125 -0.00132813 12.25 0 C13.16007812 0.00112793 14.07015625 0.00225586 15.0078125 0.00341797 C17.125 0.1328125 17.125 0.1328125 18.125 1.1328125 C18.37685049 4.37512298 18.3102298 7.6318802 18.3125 10.8828125 C18.32474609 11.7903125 18.33699219 12.6978125 18.34960938 13.6328125 C18.35968673 18.22808754 18.33672763 21.97161744 16.125 26.1328125 C14.805 26.1328125 13.485 26.1328125 12.125 26.1328125 C12.125 24.8128125 12.125 23.4928125 12.125 22.1328125 C8.165 22.1328125 4.205 22.1328125 0.125 22.1328125 C0.125 23.4528125 0.125 24.7728125 0.125 26.1328125 C-1.195 26.1328125 -2.515 26.1328125 -3.875 26.1328125 C-6.49496885 21.20354305 -6.13573405 16.30984135 -6.0625 10.8828125 C-6.06185547 9.95984375 -6.06121094 9.036875 -6.06054688 8.0859375 C-6.00708626 0.00744504 -6.00708626 0.00744504 0 0 Z M-1.875 4.1328125 C-1.875 6.1128125 -1.875 8.0928125 -1.875 10.1328125 C0.105 10.1328125 2.085 10.1328125 4.125 10.1328125 C4.125 8.1528125 4.125 6.1728125 4.125 4.1328125 C2.145 4.1328125 0.165 4.1328125 -1.875 4.1328125 Z M8.125 4.1328125 C8.125 6.1128125 8.125 8.0928125 8.125 10.1328125 C10.105 10.1328125 12.085 10.1328125 14.125 10.1328125 C14.125 8.1528125 14.125 6.1728125 14.125 4.1328125 C12.145 4.1328125 10.165 4.1328125 8.125 4.1328125 Z M-1.875 14.1328125 C-1.875 15.4528125 -1.875 16.7728125 -1.875 18.1328125 C-0.885 17.8028125 0.105 17.4728125 1.125 17.1328125 C0.795 16.1428125 0.465 15.1528125 0.125 14.1328125 C-0.535 14.1328125 -1.195 14.1328125 -1.875 14.1328125 Z M12.125 14.1328125 C12.125 15.4528125 12.125 16.7728125 12.125 18.1328125 C12.785 18.1328125 13.445 18.1328125 14.125 18.1328125 C14.125 16.8128125 14.125 15.4928125 14.125 14.1328125 C13.465 14.1328125 12.805 14.1328125 12.125 14.1328125 Z " fill="#4CB179" transform="translate(41.875,33.8671875)"/>
</svg>
