<?xml version="1.0" standalone="no"?>
<!DOCTYPE svg PUBLIC "-//W3C//DTD SVG 20010904//EN"
 "http://www.w3.org/TR/2001/REC-SVG-20010904/DTD/svg10.dtd">
<svg version="1.0" xmlns="http://www.w3.org/2000/svg"
 width="300.000000pt" height="300.000000pt" viewBox="0 0 300.000000 300.000000"
 preserveAspectRatio="xMidYMid meet">
<metadata>
Created by potrace 1.10, written by Peter Selinger 2001-2011
</metadata>
<g transform="translate(0.000000,300.000000) scale(0.100000,-0.100000)"
fill="#000000" stroke="none">
<path d="M459 2620 c-169 -29 -267 -201 -204 -359 13 -31 143 -181 466 -535
l448 -491 1 -467 0 -468 28 -31 c36 -40 87 -43 135 -6 175 134 466 373 479
395 16 24 18 58 19 302 l0 275 448 491 c323 355 453 504 466 535 26 66 23 154
-8 214 -32 63 -68 98 -132 127 l-50 23 -1025 1 c-564 1 -1046 -2 -1071 -6z
m2087 -203 c38 -33 37 -77 -2 -120 -29 -30 -152 -167 -623 -687 -112 -124
-220 -242 -240 -263 l-36 -38 -5 -281 -5 -282 -135 -109 -135 -110 -5 384 c-3
229 -9 391 -15 400 -5 9 -212 239 -459 510 -246 272 -453 504 -458 516 -14 28
5 77 35 91 15 7 348 11 1039 11 l1017 1 27 -23z"/>
</g>
</svg>
